<?xml version="1.0" encoding="iso-8859-1"?>
<!-- Generator: Adobe Illustrator 18.0.0, SVG Export Plug-In . SVG Version: 6.00 Build 0)  -->
<!DOCTYPE svg PUBLIC "-//W3C//DTD SVG 1.1//EN" "http://www.w3.org/Graphics/SVG/1.1/DTD/svg11.dtd">
<svg version="1.1" id="Capa_1" xmlns="http://www.w3.org/2000/svg" xmlns:xlink="http://www.w3.org/1999/xlink" x="0px" y="0px"
	 viewBox="0 0 494.545 494.545" style="enable-background:new 0 0 494.545 494.545;" xml:space="preserve">
<path d="M247.265,0C116.419,0,0,78.533,0,140.441c0,44.091,100.111,354.104,247.265,354.104
	c147.169,0,247.28-310.014,247.28-354.104C494.545,78.533,378.11,0,247.265,0z M247.265,47.351
	c38.641,0,73.445,7.777,102.886,18.897L108.418,307.987c-36.807-70.927-61.067-146.575-61.067-167.547
	C47.351,117.938,130.306,47.351,247.265,47.351z M247.265,447.195c-26.342,0-52.468-17.918-76.729-45.07l272.573-272.558
	c2.651,4.246,4.085,7.969,4.085,10.873C447.194,182.706,348.716,447.195,247.265,447.195z"/>
<g>
</g>
<g>
</g>
<g>
</g>
<g>
</g>
<g>
</g>
<g>
</g>
<g>
</g>
<g>
</g>
<g>
</g>
<g>
</g>
<g>
</g>
<g>
</g>
<g>
</g>
<g>
</g>
<g>
</g>
</svg>
