<?xml version="1.0" encoding="utf-8"?>
<!-- Generator: Adobe Illustrator 18.0.0, SVG Export Plug-In . SVG Version: 6.00 Build 0)  -->
<!DOCTYPE svg PUBLIC "-//W3C//DTD SVG 1.1//EN" "http://www.w3.org/Graphics/SVG/1.1/DTD/svg11.dtd">
<svg version="1.1" id="Layer_1" xmlns="http://www.w3.org/2000/svg" xmlns:xlink="http://www.w3.org/1999/xlink" x="0px" y="0px"
	 viewBox="0 0 100 100" enable-background="new 0 0 100 100" xml:space="preserve">
<path fill="#544740" d="M98.1,52.9L52.9,98.1c-1.5,1.5-4,1.5-5.5,0L2.1,52.9c-1.5-1.5-1.5-4,0-5.5L47.4,2.1c1.5-1.5,4-1.5,5.5,0
	l45.2,45.2C99.6,48.9,99.6,51.4,98.1,52.9z"/>
<g>
	<g id="XMLID_1_">
		<g>
			<path d="M73.1,68.4c1.7,0,3.2,1.4,3.2,3.1s-1.4,3.1-3.2,3.1c-0.4,0-0.9-0.1-1.2-0.3c-1.1-0.5-1.9-1.6-1.9-2.9c0-1,0.6-2,1.3-2.6
				c0.1-0.1,0.2-0.2,0.3-0.2c0.2-0.1,0.3-0.2,0.3-0.2s-0.1,0-0.3,0.1c-0.3,0.1-0.6,0.2-0.8,0.3c-0.4,0.2-0.8,0.5-1.1,0.7
				c-0.2,0.2-0.4,0.4-0.5,0.6c-0.1,0.1-0.1,0.1-0.1,0.2l0,0l-4.3-4.2l-3.1,3c-0.4,0.3-0.9,0.3-1.2,0L59.3,68c-0.4-0.3-0.4-0.9,0-1.2
				l9-8.9c0.4-0.3,0.9-0.3,1.2,0l1.2,1.2c0.4,0.3,0.4,0.9,0,1.2l-3.1,3l5.2,5.1C73,68.4,73,68.4,73.1,68.4z"/>
			<path d="M43.2,29.6l21.6,28.3l-2,2L37.9,37.1l23.3,24.4l-1.9,1.9L30.4,41.9c-0.5-0.4-0.9-0.9-1-1.5l-3.5-14.2
				c-0.2-0.6,0.4-1.1,1-1l14.6,3.3C42.2,28.7,42.7,29.1,43.2,29.6z"/>
		</g>
	</g>
</g>
</svg>
