<?xml version="1.0" encoding="utf-8"?>
<!-- Generator: Adobe Illustrator 18.0.0, SVG Export Plug-In . SVG Version: 6.00 Build 0)  -->
<!DOCTYPE svg PUBLIC "-//W3C//DTD SVG 1.1//EN" "http://www.w3.org/Graphics/SVG/1.1/DTD/svg11.dtd">
<svg version="1.1" id="Layer_1" xmlns="http://www.w3.org/2000/svg" xmlns:xlink="http://www.w3.org/1999/xlink" x="0px" y="0px"
	 viewBox="0 0 100 100" enable-background="new 0 0 100 100" xml:space="preserve">
<path fill="#42210B" stroke="#000000" stroke-miterlimit="10" d="M97.9,53.5L53.5,98c-1.9,1.9-5,1.9-6.9,0L2.1,53.5
	c-1.9-1.9-1.9-5,0-6.9L46.5,2.1c1.9-1.9,5-1.9,6.9,0l44.4,44.4C99.8,48.5,99.8,51.6,97.9,53.5z"/>
<g>
	<g id="XMLID_1_">
		<g>
			<path d="M92.7,84.2c3.4,0,6.1,2.7,6.1,6c0,3.4-2.8,6-6.1,6c-0.8,0-1.7-0.2-2.4-0.5c-2.2-0.9-3.7-3.2-3.7-5.5c0-2,1.1-3.9,2.6-5
				c0.2-0.1,0.4-0.3,0.6-0.4c0.3-0.2,0.5-0.3,0.5-0.3s-0.2,0-0.6,0.2c-0.6,0.2-1.1,0.4-1.6,0.6c-0.8,0.4-1.5,0.9-2.1,1.4
				c-0.4,0.3-0.7,0.7-1,1.1c-0.1,0.1-0.2,0.2-0.2,0.3l0,0l-8.3-8.2l-5.9,5.8c-0.7,0.6-1.7,0.6-2.4,0l-2.4-2.3
				c-0.7-0.6-0.7-1.7,0-2.4l17.5-17.2c0.7-0.6,1.7-0.6,2.4,0l2.4,2.3c0.7,0.6,0.7,1.7,0,2.4l-5.9,5.8l10.2,10
				C92.4,84.2,92.5,84.2,92.7,84.2z"/>
			<path d="M34.6,9l41.9,54.9l-4,3.9L24.3,23.5l45.1,47.2l-3.8,3.8L9.9,33c-1-0.7-1.7-1.8-2-2.9L1.2,2.6C0.9,1.6,2,0.6,3.1,0.8
				l28.3,6.3C32.7,7.3,33.8,8,34.6,9z"/>
		</g>
	</g>
</g>
</svg>
