<?xml version="1.0" encoding="iso-8859-1"?>
<!-- Generator: Adobe Illustrator 16.0.0, SVG Export Plug-In . SVG Version: 6.00 Build 0)  -->
<!DOCTYPE svg PUBLIC "-//W3C//DTD SVG 1.1//EN" "http://www.w3.org/Graphics/SVG/1.1/DTD/svg11.dtd">
<svg version="1.1" id="Capa_1" xmlns="http://www.w3.org/2000/svg" xmlns:xlink="http://www.w3.org/1999/xlink" x="0px" y="0px"
	 width="217.706px" height="217.706px" viewBox="0 0 217.706 217.706" style="enable-background:new 0 0 217.706 217.706;"
	 xml:space="preserve">
<g>
	<path d="M210.133,86.676c-9.482-25.164-25.305-48.375-44.607-67.029c-6.913-6.683-16.072-14.446-25.788-18.339
		c-4.801-1.924-7.63-0.261-9.337,1.723c-1.535,1.784-3.003,3.852-3.883,5.045L82.889,67.381L52.332,27.843
		c-0.449-0.582-1.018-1.061-1.667-1.403L7.542,3.663C5.709,2.694,3.472,2.925,1.871,4.244C0.27,5.564-0.38,7.719,0.222,9.703
		L14.38,56.366c0.213,0.703,0.575,1.354,1.061,1.906l40.396,45.922L2.941,176.181c-4.36,5.828-3.172,14.085,2.654,18.444
		c5.826,4.36,14.083,3.174,18.443-2.652l49.565-67.582l42.535,45.621l-2.836,2.778c-1.054,0.866-1.719,2.117-1.849,3.476
		c-0.13,1.357,0.285,2.71,1.152,3.763l13.004,15.763c0.867,1.054,2.118,1.72,3.477,1.849c1.357,0.131,2.71-0.285,3.764-1.152
		l5.826-4.805l16.978,20.581c4.819,5.841,13.491,6.673,19.333,1.852c2.83-2.331,4.583-5.63,4.934-9.283
		c0.352-3.648-0.742-7.221-3.076-10.048L159.868,174.2l5.825-4.805h0.003c1.05-0.867,1.715-2.116,1.846-3.476
		c0.13-1.356-0.285-2.711-1.151-3.766l-13.003-15.763c-0.867-1.054-2.117-1.716-3.476-1.847c-1.356-0.131-2.711,0.283-3.763,1.152
		l-3.338,2.777L99.577,88.976l28.753-39.205c29.219,10.592,50.26,30.047,64.467,57.625c4.092,7.943,7.646,16.158,10.917,24.471
		c0.808,2.051,7.98,23.289,11.508,10.826C220.448,124.153,216.795,104.351,210.133,86.676z"/>
</g>
<g>
</g>
<g>
</g>
<g>
</g>
<g>
</g>
<g>
</g>
<g>
</g>
<g>
</g>
<g>
</g>
<g>
</g>
<g>
</g>
<g>
</g>
<g>
</g>
<g>
</g>
<g>
</g>
<g>
</g>
</svg>
