<?xml version="1.0" encoding="utf-8"?>
<!-- Generator: Adobe Illustrator 18.0.0, SVG Export Plug-In . SVG Version: 6.00 Build 0)  -->
<!DOCTYPE svg PUBLIC "-//W3C//DTD SVG 1.1//EN" "http://www.w3.org/Graphics/SVG/1.1/DTD/svg11.dtd">
<svg version="1.1" id="Layer_1" xmlns="http://www.w3.org/2000/svg" xmlns:xlink="http://www.w3.org/1999/xlink" x="0px" y="0px"
	 viewBox="0 0 960 560" enable-background="new 0 0 960 560" xml:space="preserve">
<path fill="#42210B" stroke="#000000" stroke-miterlimit="10" d="M525.6,283.5l-45,45c-1.9,1.9-5.1,1.9-7,0l-45-45
	c-1.9-1.9-1.9-5.1,0-7l45-45c1.9-1.9,5.1-1.9,7,0l45,45C527.5,278.4,527.5,281.6,525.6,283.5z"/>
<g>
	<g id="XMLID_1_">
		<g>
			<path d="M520.4,314.6c3.4,0,6.2,2.7,6.2,6.1c0,3.4-2.8,6.1-6.2,6.1c-0.8,0-1.7-0.2-2.4-0.5c-2.2-0.9-3.7-3.2-3.7-5.6
				c0-2,1.1-3.9,2.6-5.1c0.2-0.1,0.4-0.3,0.6-0.4c0.3-0.2,0.5-0.3,0.5-0.3s-0.2,0-0.6,0.2c-0.6,0.2-1.1,0.4-1.6,0.6
				c-0.8,0.4-1.5,0.9-2.1,1.4c-0.4,0.3-0.7,0.7-1,1.1c-0.1,0.1-0.2,0.2-0.2,0.3c0,0,0,0,0,0l-8.4-8.3l-6,5.9c-0.7,0.6-1.7,0.6-2.4,0
				l-2.4-2.3c-0.7-0.6-0.7-1.7,0-2.4l17.7-17.4c0.7-0.6,1.7-0.6,2.4,0l2.4,2.3c0.7,0.6,0.7,1.7,0,2.4l-6,5.9l10.3,10.1
				C520.1,314.6,520.2,314.6,520.4,314.6z"/>
			<path d="M461.6,238.4L504,294l-4,3.9l-48.8-44.8l45.7,47.8l-3.8,3.8l-56.5-42c-1-0.7-1.7-1.8-2-2.9l-6.8-27.8
				c-0.3-1.1,0.8-2.1,1.9-1.9l28.6,6.4C459.7,236.7,460.8,237.4,461.6,238.4z"/>
		</g>
		<g>
		</g>
	</g>
</g>
</svg>
